# File created by Blade
# Date/Time:  Wed Jan 21 19:03:17 2015
#---------------------------------------------------------
:version 1.10
:name HOM
:units
  mass 1.0
  length 1.000000
  angle deg
:documentation
     Acclaim Skeleton File
:root
   axis xyz
   order TX TY TZ RX RY RZ
   position 0.000000 0.000000 0.000000
   orientation 0 0 0
:bonedata
   begin
      id 1
      name RightUpLeg_dum
      direction -1.000000 0.000000 0.000000
      length 3.693983
      axis 0.0 0.0 0.0 xyz
   end
   begin
      id 2
      name LeftUpLeg_dum
      direction 1.000000 0.000000 0.000000
      length 3.693983
      axis 0.0 0.0 0.0 xyz
   end
   begin
      id 3
      name Spine_dum
      direction 0.000000 1.000000 0.000000
      length 2.392956
      axis 0.0 0.0 0.0 xyz
   end
   begin
      id 4
      name RightUpLeg
      direction 0.000000 -1.000000 0.000000
      length 15.795667
      axis 0.0 0.0 0.0 xyz
      dof rx ry rz
   end
   begin
      id 5
      name RightLeg
      direction 0.000000 -1.000000 0.000000
      length 14.766989
      axis 0.0 0.0 0.0 xyz
      dof rx ry rz
   end
   begin
      id 6
      name RightFoot
      direction 0.000000 -0.258819 0.965926
      length 4.962790
      axis 15.0 0.0 0.0 xyz
      dof rx ry rz
   end
   begin
      id 7
      name RightToeBase
      direction 0.000000 0.000000 1.000000
      length 2.952750
      axis 0.0 0.0 0.0 xyz
      dof rx ry rz
   end
   begin
      id 8
      name LeftUpLeg
      direction 0.000000 -1.000000 0.000000
      length 15.795667
      axis 0.0 0.0 0.0 xyz
      dof rx ry rz
   end
   begin
      id 9
      name LeftLeg
      direction 0.000000 -1.000000 0.000000
      length 14.766989
      axis 0.0 0.0 0.0 xyz
      dof rx ry rz
   end
   begin
      id 10
      name LeftFoot
      direction 0.000000 -0.258819 0.965926
      length 4.962790
      axis 15.0 0.0 0.0 xyz
      dof rx ry rz
   end
   begin
      id 11
      name LeftToeBase
      direction 0.000000 0.000000 1.000000
      length 2.952750
      axis 0.0 0.0 0.0 xyz
      dof rx ry rz
   end
   begin
      id 12
      name Spine
      direction 0.000000 1.000000 0.000000
      length 0.000000
      axis 0.0 0.0 0.0 xyz
      dof rx ry rz
   end
   begin
      id 13
      name Spine_dum1
      direction 0.000000 1.000000 0.000000
      length 13.207411
      axis 0.0 0.0 0.0 xyz
   end
   begin
      id 14
      name Spine_dum2
      direction 0.000000 1.000000 0.000000
      length 13.207411
      axis 0.0 0.0 0.0 xyz
   end
   begin
      id 15
      name Spine_dum3
      direction 0.000000 1.000000 0.000000
      length 19.250100
      axis 0.0 0.0 0.0 xyz
   end
   begin
      id 16
      name RightShoulder
      direction -1.000000 0.000000 0.000000
      length 8.140465
      axis 0.0 0.0 90.0 xyz
      dof rx ry rz
   end
   begin
      id 17
      name RightArm
      direction -1.000000 0.000000 0.000000
      length 10.649840
      axis 0.0 0.0 90.0 xyz
      dof rx ry rz
   end
   begin
      id 18
      name RightForeArm
      direction -1.000000 0.000000 0.000000
      length 8.304624
      axis 0.0 0.0 90.0 xyz
      dof ry rz rx
   end
   begin
      id 19
      name RightHand
      direction -1.000000 0.000000 0.000000
      length 0.000000
      axis 0.0 0.0 90.0 xyz
      dof rx ry rz
   end
   begin
      id 20
      name RightHand_dum1
      direction -1.000000 0.000000 0.000000
      length 3.937000
      axis 0.0 0.0 90.0 xyz
   end
   begin
      id 21
      name RightHand_dum2
      direction 0.000000 0.000000 0.000000
      length 0.000000
      axis 0.0 0.0 90.0 xyz
   end
   begin
      id 22
      name RightHandThumb1
      direction 0.000000 0.000000 1.000000
      length 3.937000
      axis 0.0 0.0 90.0 xyz
      dof rx rz ry
   end
   begin
      id 23
      name LeftShoulder
      direction 1.000000 0.000000 0.000000
      length 8.140465
      axis 0.0 0.0 -90.0 xyz
      dof rx ry rz
   end
   begin
      id 24
      name LeftArm
      direction 1.000000 0.000000 0.000000
      length 10.649840
      axis 0.0 0.0 -90.0 xyz
      dof rx ry rz
   end
   begin
      id 25
      name LeftForeArm
      direction 1.000000 0.000000 0.000000
      length 8.304624
      axis 0.0 0.0 -90.0 xyz
      dof ry rz rx
   end
   begin
      id 26
      name LeftHand
      direction 1.000000 0.000000 0.000000
      length 0.000000
      axis 0.0 0.0 -90.0 xyz
      dof rx ry rz
   end
   begin
      id 27
      name LeftHand_dum1
      direction 1.000000 0.000000 0.000000
      length 3.937000
      axis 0.0 0.0 -90.0 xyz
   end
   begin
      id 28
      name LeftHand_dum2
      direction 0.000000 0.000000 0.000000
      length 0.000000
      axis 0.0 0.0 -90.0 xyz
   end
   begin
      id 29
      name LeftHandThumb1
      direction 0.000000 0.000000 1.000000
      length 3.937000
      axis 0.0 0.0 -90.0 xyz
      dof rx rz ry
   end
   begin
      id 30
      name Head
      direction 0.000000 1.000000 0.000000
      length 4.527550
      axis 0.0 0.0 0.0 xyz
      dof rx ry rz
   end
:hierarchy
   begin
      root RightUpLeg_dum LeftUpLeg_dum Spine_dum
      RightUpLeg_dum RightUpLeg
      LeftUpLeg_dum LeftUpLeg
      Spine_dum Spine
      RightUpLeg RightLeg
      RightLeg RightFoot
      RightFoot RightToeBase
      LeftUpLeg LeftLeg
      LeftLeg LeftFoot
      LeftFoot LeftToeBase
      Spine Spine_dum1 Spine_dum2 Spine_dum3
      Spine_dum1 RightShoulder
      Spine_dum2 LeftShoulder
      Spine_dum3 Head
      RightShoulder RightArm
      RightArm RightForeArm
      RightForeArm RightHand
      RightHand RightHand_dum1 RightHand_dum2
      RightHand_dum2 RightHandThumb1
      LeftShoulder LeftArm
      LeftArm LeftForeArm
      LeftForeArm LeftHand
      LeftHand LeftHand_dum1 LeftHand_dum2
      LeftHand_dum2 LeftHandThumb1
   end

# File created by Blade
# Date/Time:  Wed Jan 21 19:03:07 2015
# Frame Rate: 120.000 fps
#------------------------------------------------------
:FULLY-SPECIFIED
:DEGREES
1099
root -4.167817 30.106755 -9.333116 116.335633 -22.853297 6.750337
RightUpLeg -128.630292 -26.862714 10.560647
RightLeg -7.609688 -0.000000 0.000000
RightFoot 2.468877 -14.674913 28.845172
RightToeBase 20.964414 -0.000000 -0.000000
LeftUpLeg -110.293250 9.626803 -19.128799
LeftLeg -1.737776 -0.000000 0.000000
LeftFoot -3.093278 7.632946 -22.563790
LeftToeBase 6.224173 -0.000000 -0.000000
Spine 27.074241 -5.710223 16.760790
RightShoulder 2.277308 15.622558 -35.977221
RightArm 14.548737 31.857284 63.183256
RightForeArm 83.652220 0.000000 102.905324
RightHand 17.456342 -0.000000 0.573834
RightHandThumb1 -24.326973 -0.000000 -32.862282
LeftShoulder 6.897693 -10.751460 37.661077
LeftArm 66.656370 9.398564 -87.756492
LeftForeArm -5.017317 -0.000000 97.379102
LeftHand -16.597184 -0.000000 -1.144486
LeftHandThumb1 -26.253704 0.000000 33.147579
Head -58.153962 60.478408 -42.125704
1100
root -4.181282 30.105082 -9.345134 116.425368 -22.856417 6.688941
RightUpLeg -128.592482 -26.968566 10.319732
RightLeg -7.607929 -0.000000 0.000000
RightFoot 2.320706 -14.886659 29.011483
RightToeBase 21.079250 -0.000000 -0.000000
LeftUpLeg -110.398363 9.679398 -19.194006
LeftLeg -1.724551 -0.000000 0.000000
LeftFoot -3.033716 7.579371 -22.547058
LeftToeBase 6.098590 -0.000000 -0.000000
Spine 27.035957 -5.140136 16.555463
RightShoulder 2.125791 15.550510 -35.624792
RightArm 13.449440 31.949326 62.071527
RightForeArm 83.500573 -0.000000 102.866461
RightHand 17.587075 -0.000000 0.503983
RightHandThumb1 -24.326973 -0.000000 -32.862282
LeftShoulder 6.734467 -11.113274 37.884120
LeftArm 66.045924 9.700441 -88.035684
LeftForeArm -4.500280 -0.000000 97.647252
LeftHand -16.528643 -0.000000 -0.933169
LeftHandThumb1 -26.253704 0.000000 33.147579
Head -59.200989 60.585764 -42.467180
1101
root -4.193060 30.102129 -9.355057 116.519253 -22.862983 6.632206
RightUpLeg -128.565698 -27.087603 10.065894
RightLeg -7.590377 -0.000000 0.000000
RightFoot 2.169203 -15.138491 29.114207
RightToeBase 21.023167 -0.000000 -0.000000
LeftUpLeg -110.504390 9.726165 -19.257055
LeftLeg -1.708256 -0.000000 0.000000
LeftFoot -3.022519 7.525006 -22.618049
LeftToeBase 6.115382 -0.000000 -0.000000
Spine 26.978964 -4.602224 16.388352
RightShoulder 2.017430 15.563616 -35.401238
RightArm 12.196126 32.030050 61.044057
RightForeArm 83.288327 -0.000000 102.865935
RightHand 17.462679 -0.000000 0.625926
RightHandThumb1 -24.326973 -0.000000 -32.862282
LeftShoulder 6.563986 -11.354437 37.906122
LeftArm 65.633754 9.896324 -88.247521
LeftForeArm -4.607353 -0.000000 97.797399
LeftHand -16.198482 -0.000000 -1.268492
LeftHandThumb1 -26.253704 0.000000 33.147579
Head -59.902354 60.607031 -42.558511
1102
root -4.202655 30.098598 -9.361467 116.598981 -22.894854 6.585942
RightUpLeg -128.560904 -27.190594 9.858814
RightLeg -7.557989 -0.000000 0.000000
RightFoot 2.090387 -15.263885 29.118100
RightToeBase 20.891574 -0.000000 -0.000000
LeftUpLeg -110.584884 9.737251 -19.370662
LeftLeg -1.710702 -0.000000 0.000000
LeftFoot -3.003860 7.461993 -22.638211
LeftToeBase 6.111629 -0.000000 -0.000000
Spine 26.928866 -4.075123 16.222293
RightShoulder 1.856072 15.531077 -35.214949
RightArm 11.010138 32.096390 60.078354
RightForeArm 83.021424 -0.000000 102.839342
RightHand 17.413905 -0.000000 0.547232
RightHandThumb1 -24.326973 -0.000000 -32.862282
LeftShoulder 6.413287 -11.640372 37.947835
LeftArm 65.224742 10.165231 -88.281443
LeftForeArm -4.471545 0.000000 97.963723
LeftHand -15.950954 -0.000000 -0.844293
LeftHandThumb1 -26.253704 0.000000 33.147579
Head -60.581686 60.610170 -42.692408
1103
root -4.213633 30.095233 -9.370264 116.693461 -22.914506 6.533083
RightUpLeg -128.550874 -27.265299 9.636010
RightLeg -7.564458 -0.000000 0.000000
RightFoot 1.892982 -15.583218 29.268997
RightToeBase 20.952975 -0.000000 -0.000000
LeftUpLeg -110.683632 9.762372 -19.455000
LeftLeg -1.708893 -0.000000 0.000000
LeftFoot -3.003715 7.434299 -22.692395
LeftToeBase 6.099811 -0.000000 -0.000000
Spine 26.853521 -3.552728 16.039703
RightShoulder 1.750125 15.521792 -34.991789
RightArm 9.832142 32.128816 59.144798
RightForeArm 82.790182 0.000000 102.828587
RightHand 17.458227 -0.000000 0.489830
RightHandThumb1 -24.326973 -0.000000 -32.862282
LeftShoulder 6.297402 -11.837254 37.983747
LeftArm 64.820493 10.368846 -88.374160
LeftForeArm -3.993107 -0.000000 98.217191
LeftHand -15.877212 -0.000000 -0.854113
LeftHandThumb1 -26.253704 0.000000 33.147579
Head -61.254948 60.719280 -42.798986
